{"title":"Bombay Talkies 2013 Hindi Movies Super CamRip Sample Included Ne","uid":8437230,"size":738037968,"categoryP":"video","categoryS":"movies","magnet":"?xt=urn:btih:e5059b333dbefeabb1efdef25c937a7cedb35056&amp;dn=Bombay+Talkies+2013+Hindi+Movies+Super+CamRip+Sample+Included+Ne&amp;tr=udp%3A%2F%2Ftracker.openbittorrent.com%3A80&amp;tr=udp%3A%2F%2Fopen.demonii.com%3A1337&amp;tr=udp%3A%2F%2Ftracker.coppersurfer.tk%3A6969&amp;tr=udp%3A%2F%2Fexodus.desync.com%3A6969","seeders":0,"leechers":0,"uploader":"basicssom","files":2,"time":1367629093,"description":"Bombay Talkies 2013 Hindi Movies Super CamRip Sample Included New Source ~ rDX\n\nScreen Shots :\n &lt;a href=&quot;\nhttp://myimghosting.serveftp.com/13/BombayTalkies.html&quot; rel=&quot;nofollow&quot; target=&quot;_NEW&quot;&gt;\nhttp://myimghosting.serveftp.com/13/BombayTalkies.html&lt;/a&gt;\n &lt;a href=&quot;\nhttp://myimghost.cwahi.net/BombayTalkies.html&quot; rel=&quot;nofollow&quot; target=&quot;_NEW&quot;&gt;\nhttp://myimghost.cwahi.net/BombayTalkies.html&lt;/a&gt;\n &lt;a href=&quot;\nhttp://users2.jabry.com/myimghost/Bombay%20Talkies/Bombay%20Talkies.jpg&quot; rel=&quot;nofollow&quot; target=&quot;_NEW&quot;&gt;\nhttp://users2.jabry.com/myimghost/Bombay%20Talkies/Bombay%20Talkies.jpg&lt;/a&gt;\n\nFormat                                   : AVI\nFormat/Info                              : Audio Video Interleave\nFile size                                : 694 MiB\nDuration                                 : 1h 57mn\nOverall bit rate                         : 825 Kbps\nWriting library                          : MPlayer\n\nVideo\nID                                       : 0\nFormat                                   : MPEG-4 Visual\nFormat profile                           : Advanced Simple@L5\nFormat settings, BVOP                    : 2\nFormat settings, QPel                    : No\nFormat settings, GMC                     : No warppoints\nFormat settings, Matrix                  : Default (H.263)\nCodec ID                                 : XVID\nCodec ID/Hint                            : XviD\nDuration                                 : 1h 57mn\nBit rate                                 : 692 Kbps\nWidth                                    : 576 pixels\nHeight                                   : 240 pixels\nDisplay aspect ratio                     : 2.40:1\nFrame rate                               : 25.000 fps\nColor space                              : YUV\nChroma subsampling                       : 4:2:0\nBit depth                                : 8 bits\nScan type                                : Progressive\nCompression mode                         : Lossy\nBits/(Pixel*Frame)                       : 0.200\nStream size                              : 582 MiB (84%)\nWriting library                          : XviD 1.2.1 (UTC 2008-12-04)\n\nAudio\nID                                       : 1\nFormat                                   : AC-3\nFormat/Info                              : Audio Coding 3\nMode extension                           : CM (complete main)\nFormat settings, Endianness              : Big\nCodec ID                                 : 2000\nDuration                                 : 1h 57mn\nBit rate mode                            : Constant\nBit rate                                 : 128 Kbps\nChannel(s)                               : 2 channels\nChannel positions                        : Front: L R\nSampling rate                            : 48.0 KHz\nBit depth                                : 16 bits\nCompression mode                         : Lossy\nStream size                              : 108 MiB (16%)\nAlignment                                : Split accross interleaves\nInterleave, duration                     : 500 ms (12.50 video frames)\nInterleave, preload duration             : 500 ms","torrent":{"xt":"urn:btih:e5059b333dbefeabb1efdef25c937a7cedb35056","amp;dn":"Bombay+Talkies+2013+Hindi+Movies+Super+CamRip+Sample+Included+Ne","amp;tr":["udp%3A%2F%2Ftracker.openbittorrent.com%3A80","udp%3A%2F%2Fopen.demonii.com%3A1337","udp%3A%2F%2Ftracker.coppersurfer.tk%3A6969","udp%3A%2F%2Fexodus.desync.com%3A6969"],"infoHash":"e5059b333dbefeabb1efdef25c937a7cedb35056","infoHashBuffer":{"type":"Buffer","data":[229,5,155,51,61,190,254,171,177,239,222,242,92,147,122,124,237,179,80,86]},"announce":[],"urlList":[]}}